<svg xmlns="http://www.w3.org/2000/svg" xmlns:xlink="http://www.w3.org/1999/xlink" width="96" height="96" viewBox="0 0 96 96"><defs><linearGradient id="a" x1="0.037" y1="0.197" x2="0.856" y2="0.925" gradientUnits="objectBoundingBox"><stop offset="0" stop-color="#fe5100"/><stop offset="1" stop-color="#feda00"/></linearGradient></defs><rect width="96" height="96" fill="none"/><path d="M36.686,85.711a2.986,2.986,0,0,1-1.375-.334A28.592,28.592,0,0,1,20.322,65.339a23.479,23.479,0,0,1,1.954-14.725A61.091,61.091,0,0,1,26.992,42.8c.883-1.308,1.717-2.544,2.5-3.821,4.588-7.477,6.293-14.346,8-25.179a3.859,3.859,0,0,1,2.141-3.236,4.314,4.314,0,0,1,4.184.786q.717.486,1.439.965c.475.317.951.634,1.423.954,2.149,1.455,4.027,2.77,5.742,4.021,4.936,3.6,8.83,6.747,11.787,10.4,5.924,7.323,9.45,13.217,11.111,23.372h0c1.456,8.9.91,16.1-1.625,21.4l-.245.514a40.655,40.655,0,0,1-2.176,4.144A3,3,0,0,1,65.8,74.9a31.991,31.991,0,0,0,.617-7.784c-.181-5.974-1.921-9.825-5.512-15.7a35.7,35.7,0,0,0-6.261-7.44c-.911-.869-1.9-1.784-3.011-2.781-2.053,6.341-4.214,11.044-8.117,15.846-.764.941-1.561,1.839-2.332,2.708a40.3,40.3,0,0,0-3.713,4.61A11.893,11.893,0,0,0,35.46,71.7a15.84,15.84,0,0,0,3.549,9.109,3,3,0,0,1-2.323,4.9Zm6.2-67.758C41.2,27.78,39.235,34.575,34.607,42.119c-.852,1.388-1.762,2.736-2.642,4.04A55.771,55.771,0,0,0,27.69,53.2a17.288,17.288,0,0,0-1.48,10.985A22.932,22.932,0,0,0,29.487,72.3c-.006-.076-.011-.153-.015-.229a18.014,18.014,0,0,1,2.968-11,45.536,45.536,0,0,1,4.252-5.315c.762-.859,1.482-1.67,2.164-2.509C42.826,48.364,44.7,43.608,46.95,36a3.646,3.646,0,0,1,2.417-2.688,3.929,3.929,0,0,1,3.716,1.148c.316.282.635.561.954.841l.941.829c1.427,1.27,2.671,2.413,3.8,3.494a41.216,41.216,0,0,1,7.24,8.654,57.936,57.936,0,0,1,3.825,7.088q-.169-1.615-.451-3.333h0c-1.453-8.886-4.458-13.9-9.854-20.568-2.547-3.149-6.1-6.007-10.657-9.329-1.658-1.208-3.48-2.484-5.571-3.9Z" fill="url(#a)"/></svg>