<svg xmlns="http://www.w3.org/2000/svg" xmlns:xlink="http://www.w3.org/1999/xlink" width="192" height="96" viewBox="0 0 192 96"><defs><linearGradient id="a" x1="-0.058" y1="0.5" x2="1.062" y2="0.5" gradientUnits="objectBoundingBox"><stop offset="0" stop-color="#fe6c00"/><stop offset="1" stop-color="#feb300"/></linearGradient><linearGradient id="b" x1="0.037" y1="0.197" x2="0.856" y2="0.925" gradientUnits="objectBoundingBox"><stop offset="0" stop-color="#fe5100"/><stop offset="1" stop-color="#feda00"/></linearGradient></defs><rect width="192" height="96" fill="none"/><path d="M96.551,40.315v4.032h11.126V46H96.551V57.125H94.916V40.243c0-5.147,2.853-8.5,8.432-8.5a9.959,9.959,0,0,1,6.541,2.088l-.673,1.512a8.71,8.71,0,0,0-5.835-1.908C98.731,33.44,96.551,35.959,96.551,40.315Zm16.437-7.091a1.483,1.483,0,0,1,1.476-1.476,1.458,1.458,0,1,1-1.476,1.476Zm.576,5.111h1.8v18.79h-1.8ZM135.54,54.219l.8,1.365a8.941,8.941,0,0,1-7.544,1.651c-5.583-1.085-8.785-5.742-7.72-11.219s5.565-8.635,10.794-7.618c4.912.954,7.7,5.309,6.989,10.269l-16.173.009a8.1,8.1,0,0,0,12.857,5.543Zm17.8-16.028v1.764c-.143,0-.288-.036-.431-.036-4.176,0-6.66,2.772-6.66,7.415v9.791h-1.8V38.335h1.727v4.1C147.331,39.7,149.814,38.191,153.341,38.191Zm21.743.144V55.109c0,6.3-2.807,9.143-8.386,9.143-3.168,0-6.228-1.08-7.955-2.987l.971-1.369a9.494,9.494,0,0,0,6.911,2.736c4.572,0,6.66-2.3,6.66-7.307V52.779c-1.26,2.485-3.78,3.662-7.02,3.662-4.787,0-7.847-2.7-7.847-7.955V38.335h1.8V48.342c0,4.248,2.268,6.479,6.192,6.479,4.247,0,6.875-2.843,6.875-7.307V38.335Zm-37.795,8.727a6.985,6.985,0,0,0-5.724-7.11c-4.24-.824-7.861,1.772-8.734,6.26-.052.271-.086.564-.115.85Z" fill="url(#a)"/><rect width="72" height="72" transform="translate(16.916 12)" fill="none"/><path d="M44.43,76.283a2.246,2.246,0,0,1-1.031-.25A21.448,21.448,0,0,1,32.156,61a17.621,17.621,0,0,1,1.466-11.043A45.9,45.9,0,0,1,37.159,44.1c.662-.981,1.288-1.908,1.876-2.866,3.441-5.609,4.72-10.76,6-18.885a2.9,2.9,0,0,1,1.606-2.426,3.232,3.232,0,0,1,3.138.589q.542.368,1.088.73.53.353,1.058.709c1.618,1.1,3.026,2.082,4.306,3.016a45.675,45.675,0,0,1,8.841,7.8c4.443,5.493,7.087,9.913,8.333,17.53h0c1.092,6.675.682,12.076-1.218,16.053L72,66.74a30.888,30.888,0,0,1-1.632,3.107,2.25,2.25,0,0,1-4.108-1.674,23.982,23.982,0,0,0,.463-5.838c-.135-4.481-1.44-7.369-4.133-11.779a26.76,26.76,0,0,0-4.7-5.58c-.682-.652-1.425-1.338-2.258-2.085A34.043,34.043,0,0,1,49.55,54.775c-.573.7-1.17,1.378-1.748,2.029a30.194,30.194,0,0,0-2.786,3.458,8.923,8.923,0,0,0-1.506,5.515,11.88,11.88,0,0,0,2.663,6.832,2.25,2.25,0,0,1-1.743,3.674Zm4.653-50.818c-1.264,7.37-2.74,12.466-6.213,18.124-.638,1.042-1.321,2.053-1.982,3.031a41.8,41.8,0,0,0-3.205,5.28,12.971,12.971,0,0,0-1.11,8.239,17.225,17.225,0,0,0,2.457,6.087l-.011-.172a13.5,13.5,0,0,1,2.228-8.249,34.058,34.058,0,0,1,3.189-3.988c.572-.643,1.111-1.251,1.622-1.88,2.976-3.663,4.38-7.23,6.07-12.935a2.736,2.736,0,0,1,1.813-2.015,2.945,2.945,0,0,1,2.787.86q.355.316.715.631l.706.622c1.07.952,2,1.809,2.853,2.62a30.92,30.92,0,0,1,5.43,6.491A43.469,43.469,0,0,1,69.3,53.527q-.127-1.212-.338-2.5h0C67.873,44.363,65.619,40.6,61.572,35.6a41.927,41.927,0,0,0-7.993-7c-1.238-.9-2.6-1.859-4.178-2.925C49.295,25.608,49.19,25.536,49.083,25.465Z" fill="url(#b)"/></svg>